<?xml version="1.0" encoding="utf-8"?>
<svg version="1.1" id="Layer_1" xmlns="http://www.w3.org/2000/svg" xmlns:xlink="http://www.w3.org/1999/xlink" x="0px" y="0px"
	 viewBox="0 0 2630 1618.457" enable-background="new 0 0 2630 1618.457" xml:space="preserve">
<g>
	<polygon fill="#3C3A6E" points="423.324,700.309 423.324,700.309 423.324,700.309 	"/>
	<polygon fill="#3C3A6E" points="822.479,700.309 822.479,700.309 822.479,700.309 	"/>
	<path fill="#3C3A6E" d="M88.359,778.624c-4.425,3.768-10.391,7.057-10.78,13.165c2.624,3.886,5.879,7.324,8.89,10.945
		c0.854,1.546,1.709,3.133,2.563,4.72l0.692-0.509c2.002,5.357,4.117,10.679,6.347,15.955l10.152-31.284L88.359,778.624z"/>
	<path fill="#3C3A6E" d="M1224.903,748.344v-121.86v-121.86v-121.86v-121.86v-97.797c-38.27-0.339-76.529-0.506-114.803-1.196
		c-6.591,0.061-13.264-0.976-19.774,0.061c-20.468-1.87-41.069-1.586-61.564-3.112l4.278,13.158h35.462l-28.693,20.804
		l11.008,33.724l-28.724-20.89l-28.66,20.89l10.939-33.708l-28.716-20.821h35.462l4.665-14.348
		c-2.797-0.159-5.598-0.192-8.398,0.029c-53.504-2.848-106.906-7.344-160.247-12.389c-3.886-0.407-7.771-0.793-11.657-1.159
		c-3.824-0.366-7.647-0.745-11.469-1.128l9.428,28.996h35.462l-28.693,20.804l11.008,33.724l-28.724-20.89l-28.66,20.89
		l10.939-33.708l-28.716-20.821h35.462l9.524-29.292c-13.222-1.336-26.434-2.76-39.634-4.252c-10.765-1.23-21.5-2.648-32.212-4.199
		l2.175,6.702l-11.04-8.023c-9.617-1.463-19.216-3.036-28.799-4.698l-17.544,12.721l4.886-14.967
		c-48.032-8.709-95.734-19.376-143.538-29.256l-14.503,10.515l10.939,33.708l-28.66-20.826l-28.724,20.826l11.008-33.725
		l-28.693-20.804h27.197c-4.28-1.54-8.92-2.069-13.344-3.065c-57.166-11.698-114.27-23.761-171.293-36.09
		c-1.261,0.041-3.804,0.143-5.066,0.183l0.448-1.241c-17.373-3.927-34.788-7.792-52.059-12.186
		c-10.864-2.767-20.893-7.893-31.044-12.511c-0.183,6.408,0.834,13.101-1.363,19.265c-3.54,2.095-7.527,3.275-11.331,4.801
		c0.163,6.123,1.912,12.084,1.994,18.167c-4.435,8.503-16.641,9.968-24.86,6.713c-13.732-6.957-24.392-18.472-35.337-29.051
		c-3.438,3.804-2.604,9.297-4.638,13.752c-1.872,4.353-3.764,8.707-5.249,13.223c2.075,3.926,5.025,7.242,8.626,9.846
		c0.479,2.727,0.981,5.457,1.461,8.192h9.504l-8.495,6.16c0.592,3.939,1.058,7.892,1.233,11.872
		c-0.061,15.481-8.524,29.173-10.355,44.37c-4.252,16.112,0.509,33.669-7.161,49.007c-3.621,7.283,2.726,15.075-0.692,22.358
		c-2.36,7.263-5.066,14.383-7.71,21.524c-1.45,3.632-2.717,7.325-3.823,11.07l1.521,4.687h35.482l-28.716,20.884l10.939,33.644
		l-28.646-20.816l-6.605,4.799c-7.168,16.12-18.01,30.541-23.831,47.287c-8.829,8.341-20.791,15.115-24.168,27.647
		c-2.563,6.591,2.889,12.796,2.238,19.408c-2.238,4.008-7.039,5.818-10.111,9.175c0.936,6.652,1.343,13.467,3.092,19.998
		c5.391,12.816,5.411,27.22,3.235,40.768c-0.915,5.452-7.609,7.263-9.378,12.349c-2.441,7.69-1.424,15.95-3.092,23.781
		c-4.374,6.307-11.637,9.867-16.194,16.031c-2.807,5.31-2.909,11.494-4.109,17.272c9.765,10.518,13.244,24.941,15.685,38.653
		c1.139,7.771-10.518,10.335-9.5,18.147c-0.407,8.402,3.092,17.251-0.509,25.287c-0.834,2.909-3.703,6.673-0.59,9.236
		c11.576,12.267,17.292,28.359,24.595,43.251c-2.278,4.415-4.394,8.911-6.062,13.589c5.31,4.862,9.399,11.026,15.42,15.136
		c2.482-4.679,2.075-9.989,2.645-15.054c3.397-3.052,7.812-0.57,11.026,1.404c1.343,8.727,0.427,17.496-2.726,25.755
		c3.336,1.709,6.632,3.479,9.887,5.35c-2.604,3.987-5.35,7.914-8.199,11.738c-5.106-3.947-10.009-8.178-14.118-13.162
		c0.448,11.148-0.285,22.358,0.773,33.465c5.493,6.917,13.406,11.799,20.12,17.557c1.165,3.631,1.101,7.261,0.026,10.653h19.509
		l10.94-33.712l10.94,33.712h35.483l-28.724,20.89l10.947,33.731l-28.646-20.88L96.672,824.33
		c6.796,15.901,14.698,31.347,24.049,45.874h1104.181V748.344z M141.613,620.513l10.956,33.696l-28.646-20.816l-28.646,20.816
		l10.956-33.696L77.5,599.68h35.483l10.94-33.712l10.94,33.712h35.483L141.613,620.513z M141.63,449.454l10.939,33.708
		l-28.646-20.88l-28.646,20.88l10.939-33.708L77.5,428.634h35.462l10.961-33.712l10.961,33.712h35.462L141.63,449.454z
		 M252.415,739.778l-28.692-20.803l-28.692,20.803l10.945-33.725l-28.629-20.804h35.37l10.961-33.712l11.025,33.712H270.1
		l-28.629,20.804L252.415,739.778z M241.463,534.984l10.952,33.747l-28.692-20.867l-28.692,20.867l10.952-33.747l-28.637-20.873
		h35.39l10.94-33.712l11.004,33.712H270.1L241.463,534.984z M241.471,363.868l10.944,33.725l-28.692-20.803l-28.692,20.803
		l10.945-33.725l-28.629-20.804h35.39l10.94-33.712l11.004,33.712H270.1L241.471,363.868z M241.471,192.822l10.944,33.724
		l-28.692-20.867l-28.692,20.867l10.945-33.724l-28.629-20.804h35.37l10.961-33.712l11.025,33.712H270.1L241.471,192.822z
		 M352.169,825.347l-28.646-20.88l-28.646,20.88l10.947-33.731l-28.724-20.89h35.483l10.94-33.712l10.94,33.712h35.482
		l-28.724,20.89L352.169,825.347z M341.214,620.513l10.956,33.696l-28.646-20.816l-28.646,20.816l10.956-33.696l-28.733-20.833
		h35.483l10.94-33.712l10.94,33.712h35.482L341.214,620.513z M341.23,449.454l10.939,33.708l-28.646-20.88l-28.646,20.88
		l10.939-33.708l-28.716-20.821h35.462l10.961-33.712l10.961,33.712h35.462L341.23,449.454z M341.23,278.379l10.939,33.644
		l-28.646-20.816l-28.646,20.816l10.939-33.644l-28.716-20.884h35.482l10.941-33.712l10.94,33.712h35.482L341.23,278.379z
		 M341.23,107.269l10.939,33.708l-28.646-20.816l-28.646,20.816l10.939-33.708l-28.716-20.821h35.483l10.94-33.712l10.94,33.712
		h35.482L341.23,107.269z M452.016,739.778l-28.692-20.803l-28.692,20.803l10.945-33.725l-28.63-20.804h35.37l10.961-33.712
		l10.961,33.712h35.462l-28.63,20.804L452.016,739.778z M441.064,534.984l10.952,33.747l-28.692-20.867l-28.692,20.867
		l10.952-33.747l-28.637-20.873h35.39l10.94-33.712l10.94,33.712h35.483L441.064,534.984z M441.071,363.868l10.945,33.725
		l-28.692-20.803l-28.692,20.803l10.944-33.725l-28.629-20.804h35.39l10.94-33.712l10.94,33.712h35.483L441.071,363.868z
		 M441.071,192.822l10.945,33.724l-28.692-20.867l-28.692,20.867l10.944-33.724l-28.629-20.804h35.37l10.961-33.712l10.961,33.712
		h35.462L441.071,192.822z M551.77,825.347l-28.66-20.89l-28.724,20.89l11.016-33.747l-28.701-20.873h35.482l10.94-33.712
		l10.94,33.712h35.483l-28.724,20.89L551.77,825.347z M540.814,620.513l10.956,33.696l-28.66-20.826l-28.724,20.826l11.025-33.712
		l-28.71-20.816h35.482l10.94-33.712l10.94,33.712h35.483L540.814,620.513z M540.831,449.454l10.939,33.708l-28.66-20.89
		l-28.724,20.89l11.008-33.725l-28.693-20.804h35.462l10.961-33.712l10.961,33.712h35.462L540.831,449.454z M540.831,278.379
		l10.939,33.644l-28.66-20.826l-28.724,20.826l11.008-33.661l-28.693-20.868h35.482l10.941-33.712l10.94,33.712h35.483
		L540.831,278.379z M651.616,739.778l-28.692-20.803l-28.692,20.803l10.945-33.725l-28.63-20.804h35.37l10.961-33.712l10.961,33.712
		h35.462l-28.642,20.767L651.616,739.778z M640.652,534.946l10.964,33.785l-28.692-20.867l-28.692,20.867l10.952-33.747
		l-28.637-20.873h35.39l10.94-33.712l10.94,33.712h35.482L640.652,534.946z M640.659,363.831l10.957,33.762l-28.692-20.803
		l-28.692,20.803l10.945-33.725l-28.63-20.804h35.39l10.94-33.712l10.94,33.712h35.482L640.659,363.831z M640.659,192.784
		l10.957,33.762l-28.692-20.867l-28.692,20.867l10.945-33.724l-28.63-20.804h35.37l10.961-33.712l10.961,33.712h35.462
		L640.659,192.784z M751.37,825.347l-28.66-20.89l-28.724,20.89l11.016-33.747l-28.701-20.873h35.483l10.94-33.712l10.941,33.712
		h35.482l-28.724,20.89L751.37,825.347z M740.414,620.513l10.956,33.696l-28.66-20.826l-28.724,20.826l11.025-33.712l-28.71-20.816
		h35.483l10.94-33.712l10.941,33.712h35.482L740.414,620.513z M740.431,449.454l10.939,33.708l-28.66-20.89l-28.724,20.89
		l11.008-33.724l-28.693-20.804h35.462l10.961-33.712l10.961,33.712h35.462L740.431,449.454z M740.431,278.379l10.939,33.644
		l-28.66-20.826l-28.724,20.826l11.008-33.661l-28.693-20.868h35.482l10.94-33.712l10.941,33.712h35.482L740.431,278.379z
		 M851.217,739.778l-28.724-20.826l-28.66,20.826l10.939-33.708l-28.716-20.821h35.462l10.961-33.712l10.961,33.712h35.462
		l-28.693,20.804L851.217,739.778z M840.201,534.984l11.016,33.747l-28.724-20.89l-28.66,20.89l10.947-33.731l-28.724-20.89h35.483
		l10.94-33.712l10.94,33.712h35.483L840.201,534.984z M840.208,363.868l11.008,33.725l-28.724-20.826l-28.66,20.826l10.939-33.708
		l-28.716-20.821h35.483l10.94-33.712l10.94,33.712h35.483L840.208,363.868z M950.971,825.347l-28.692-20.867l-28.692,20.867
		l10.964-33.785l-28.649-20.836h35.483l10.94-33.712l10.94,33.712h35.391L940.019,791.6L950.971,825.347z M940.009,620.496
		l10.961,33.712l-28.692-20.803l-28.692,20.803l10.973-33.75l-28.658-20.779h35.483l10.94-33.712l10.94,33.712h35.391
		L940.009,620.496z M940.026,449.438l10.944,33.725l-28.692-20.867l-28.692,20.867l10.957-33.762l-28.642-20.767h35.462
		l10.961-33.712l10.961,33.712h35.37L940.026,449.438z M940.026,278.363l10.944,33.661l-28.692-20.803l-28.692,20.803l10.957-33.698
		l-28.642-20.83h35.483l10.94-33.712l10.94,33.712h35.39L940.026,278.363z M1050.817,739.778l-28.724-20.826l-28.66,20.826
		l10.939-33.708l-28.716-20.821h35.462l10.961-33.712l10.961,33.712h35.462l-28.693,20.804L1050.817,739.778z M1039.801,534.984
		l11.016,33.747l-28.724-20.89l-28.66,20.89l10.947-33.731l-28.724-20.89h35.483l10.94-33.712l10.94,33.712h35.482L1039.801,534.984
		z M1039.809,363.868l11.008,33.725l-28.724-20.826l-28.66,20.826l10.939-33.708l-28.716-20.821h35.483l10.94-33.712l10.94,33.712
		h35.482L1039.809,363.868z M1150.571,825.347l-28.692-20.867l-28.692,20.867l10.952-33.747l-28.637-20.873h35.483l10.94-33.712
		l10.94,33.712h35.39l-28.637,20.873L1150.571,825.347z M1139.61,620.496l10.961,33.712l-28.692-20.803l-28.692,20.803
		l10.961-33.712l-28.646-20.816h35.483l10.94-33.712l10.94,33.712h35.39L1139.61,620.496z M1139.626,449.438l10.945,33.725
		l-28.692-20.867l-28.692,20.867l10.944-33.725l-28.629-20.804h35.462l10.961-33.712l10.961,33.712h35.37L1139.626,449.438z
		 M1139.626,278.363l10.945,33.661l-28.692-20.803l-28.692,20.803l10.944-33.661l-28.629-20.868h35.482l10.941-33.712l10.941,33.712
		h35.39L1139.626,278.363z"/>
	<path fill="#FFFFFF" d="M160.842,86.448c0.359,2.05,0.7,4.103,1.009,6.16l8.495-6.16H160.842z"/>
	<polygon fill="#FFFFFF" points="323.524,52.736 312.583,86.448 277.101,86.448 305.817,107.269 294.878,140.977 323.524,120.161 
		352.169,140.977 341.23,107.269 369.947,86.448 334.464,86.448 	"/>
	<path fill="#FFFFFF" d="M505.394,107.252l-11.008,33.725l28.724-20.826l28.66,20.826l-10.939-33.708l14.503-10.515
		c-3.466-0.716-6.933-1.434-10.4-2.141c-12.633-2.339-25.043-6.123-37.941-6.835c-1.001-0.527-2.04-0.95-3.094-1.329h-27.197
		L505.394,107.252z"/>
	<path fill="#FFFFFF" d="M711.531,128.256c-4.222-0.732-8.442-1.482-12.659-2.247l-4.886,14.967L711.531,128.256z"/>
	<path fill="#FFFFFF" d="M749.195,134.275c-2.957-0.428-5.912-0.871-8.865-1.321l11.04,8.023L749.195,134.275z"/>
	<polygon fill="#FFFFFF" points="223.677,138.306 212.716,172.018 177.346,172.018 205.976,192.822 195.031,226.546 
		223.723,205.679 252.415,226.546 241.471,192.822 270.1,172.018 234.702,172.018 	"/>
	<polygon fill="#FFFFFF" points="423.278,138.306 412.316,172.018 376.947,172.018 405.576,192.822 394.632,226.546 
		423.324,205.679 452.016,226.546 441.071,192.822 469.701,172.018 434.239,172.018 	"/>
	<polygon fill="#FFFFFF" points="622.878,138.306 611.917,172.018 576.547,172.018 605.177,192.822 594.232,226.546 
		622.924,205.679 651.616,226.546 640.659,192.784 669.301,172.018 633.839,172.018 	"/>
	<path fill="#FFFFFF" d="M776.056,172.018l28.716,20.821l-10.939,33.708l28.66-20.89l28.724,20.89l-11.008-33.724l28.693-20.804
		H833.44l-9.428-28.996c-0.99-0.099-1.981-0.196-2.971-0.296l-9.524,29.292H776.056z"/>
	<path fill="#FFFFFF" d="M975.656,172.018l28.716,20.821l-10.939,33.708l28.66-20.89l28.724,20.89l-11.008-33.724l28.693-20.804
		h-35.462l-4.278-13.158c-0.69-0.051-1.381-0.088-2.071-0.144c-3.625-0.414-7.264-0.84-10.908-1.046l-4.665,14.348H975.656z"/>
	<path fill="#FFFFFF" d="M152.569,312.023l-10.939-33.644l28.716-20.884h-35.482l-1.521-4.687c-0.523,1.772-1.022,3.551-1.466,5.348
		c-1.444,1.526-2.462,3.336-3.031,5.411c-2.095,6.184-4.293,12.328-6.571,18.452c-1.239,4.854-2.954,9.487-4.956,13.988l6.605-4.799
		L152.569,312.023z"/>
	<polygon fill="#FFFFFF" points="323.524,223.783 312.583,257.495 277.101,257.495 305.817,278.379 294.878,312.023 
		323.524,291.207 352.169,312.023 341.23,278.379 369.947,257.495 334.464,257.495 	"/>
	<polygon fill="#FFFFFF" points="523.124,223.783 512.183,257.495 476.701,257.495 505.394,278.363 494.386,312.023 523.11,291.197 
		551.77,312.023 540.831,278.379 569.547,257.495 534.064,257.495 	"/>
	<polygon fill="#FFFFFF" points="722.724,223.783 711.784,257.495 676.301,257.495 704.995,278.363 693.986,312.023 722.71,291.197 
		751.37,312.023 740.431,278.379 769.147,257.495 733.665,257.495 	"/>
	<polygon fill="#FFFFFF" points="922.325,223.783 911.384,257.495 875.902,257.495 904.543,278.325 893.587,312.023 922.279,291.22 
		950.971,312.023 940.026,278.363 968.656,257.495 933.265,257.495 	"/>
	<polygon fill="#FFFFFF" points="1121.925,223.783 1110.985,257.495 1075.502,257.495 1104.132,278.363 1093.187,312.023 
		1121.879,291.22 1150.571,312.023 1139.626,278.363 1168.256,257.495 1132.866,257.495 	"/>
	<polygon fill="#FFFFFF" points="223.677,309.352 212.737,343.064 177.346,343.064 205.976,363.868 195.031,397.593 
		223.723,376.789 252.415,397.593 241.471,363.868 270.1,343.064 234.681,343.064 	"/>
	<polygon fill="#FFFFFF" points="423.278,309.352 412.337,343.064 376.947,343.064 405.576,363.868 394.632,397.593 
		423.324,376.789 452.016,397.593 441.071,363.868 469.701,343.064 434.218,343.064 	"/>
	<polygon fill="#FFFFFF" points="622.878,309.352 611.938,343.064 576.547,343.064 605.177,363.868 594.232,397.593 
		622.924,376.789 651.616,397.593 640.659,363.831 669.301,343.064 633.819,343.064 	"/>
	<polygon fill="#FFFFFF" points="822.479,309.352 811.538,343.064 776.056,343.064 804.772,363.885 793.833,397.593 
		822.493,376.766 851.217,397.593 840.208,363.868 868.902,343.064 833.419,343.064 	"/>
	<polygon fill="#FFFFFF" points="1022.079,309.352 1011.138,343.064 975.656,343.064 1004.372,363.885 993.433,397.593 
		1022.093,376.766 1050.817,397.593 1039.809,363.868 1068.502,343.064 1033.019,343.064 	"/>
	<polygon fill="#FFFFFF" points="123.923,394.922 112.962,428.634 77.5,428.634 106.216,449.454 95.277,483.162 123.923,462.282 
		152.569,483.162 141.63,449.454 170.346,428.634 134.884,428.634 	"/>
	<polygon fill="#FFFFFF" points="323.524,394.922 312.562,428.634 277.101,428.634 305.817,449.454 294.878,483.162 
		323.524,462.282 352.169,483.162 341.23,449.454 369.947,428.634 334.485,428.634 	"/>
	<polygon fill="#FFFFFF" points="523.124,394.922 512.163,428.634 476.701,428.634 505.394,449.438 494.386,483.162 523.11,462.272 
		551.77,483.162 540.831,449.454 569.547,428.634 534.085,428.634 	"/>
	<polygon fill="#FFFFFF" points="722.724,394.922 711.763,428.634 676.301,428.634 704.995,449.438 693.986,483.162 722.71,462.272 
		751.37,483.162 740.431,449.454 769.147,428.634 733.686,428.634 	"/>
	<polygon fill="#FFFFFF" points="922.325,394.922 911.364,428.634 875.902,428.634 904.543,449.4 893.587,483.162 922.279,462.295 
		950.971,483.162 940.026,449.438 968.656,428.634 933.286,428.634 	"/>
	<polygon fill="#FFFFFF" points="1121.925,394.922 1110.964,428.634 1075.502,428.634 1104.132,449.438 1093.187,483.162 
		1121.879,462.295 1150.571,483.162 1139.626,449.438 1168.256,428.634 1132.886,428.634 	"/>
	<polygon fill="#FFFFFF" points="223.677,480.399 212.737,514.111 177.346,514.111 205.983,534.984 195.031,568.731 
		223.723,547.865 252.415,568.731 241.463,534.984 270.1,514.111 234.681,514.111 	"/>
	<polygon fill="#FFFFFF" points="423.278,480.399 412.337,514.111 376.947,514.111 405.584,534.984 394.632,568.731 
		423.324,547.865 452.016,568.731 441.064,534.984 469.701,514.111 434.218,514.111 	"/>
	<polygon fill="#FFFFFF" points="622.878,480.399 611.938,514.111 576.547,514.111 605.184,534.984 594.232,568.731 
		622.924,547.865 651.616,568.731 640.652,534.946 669.301,514.111 633.819,514.111 	"/>
	<polygon fill="#FFFFFF" points="822.479,480.399 811.538,514.111 776.056,514.111 804.779,535.001 793.833,568.731 
		822.493,547.841 851.217,568.731 840.201,534.984 868.902,514.111 833.419,514.111 	"/>
	<polygon fill="#FFFFFF" points="1022.079,480.399 1011.138,514.111 975.656,514.111 1004.379,535.001 993.433,568.731 
		1022.093,547.841 1050.817,568.731 1039.801,534.984 1068.502,514.111 1033.019,514.111 	"/>
	<polygon fill="#FFFFFF" points="123.923,565.968 112.983,599.68 77.5,599.68 106.233,620.513 95.277,654.209 123.923,633.393 
		152.569,654.209 141.613,620.513 170.346,599.68 134.864,599.68 	"/>
	<polygon fill="#FFFFFF" points="323.524,565.968 312.583,599.68 277.101,599.68 305.833,620.513 294.878,654.209 323.524,633.393 
		352.169,654.209 341.214,620.513 369.947,599.68 334.464,599.68 	"/>
	<polygon fill="#FFFFFF" points="523.124,565.968 512.183,599.68 476.701,599.68 505.411,620.496 494.386,654.209 523.11,633.382 
		551.77,654.209 540.814,620.513 569.547,599.68 534.064,599.68 	"/>
	<polygon fill="#FFFFFF" points="722.724,565.968 711.784,599.68 676.301,599.68 705.011,620.496 693.986,654.209 722.71,633.382 
		751.37,654.209 740.414,620.513 769.147,599.68 733.665,599.68 	"/>
	<polygon fill="#FFFFFF" points="922.325,565.968 911.384,599.68 875.902,599.68 904.56,620.459 893.587,654.209 922.279,633.405 
		950.971,654.209 940.009,620.496 968.656,599.68 933.265,599.68 	"/>
	<polygon fill="#FFFFFF" points="1121.925,565.968 1110.985,599.68 1075.502,599.68 1104.148,620.496 1093.187,654.209 
		1121.879,633.405 1150.571,654.209 1139.61,620.496 1168.256,599.68 1132.866,599.68 	"/>
	<polygon fill="#FFFFFF" points="234.702,685.249 223.677,651.537 212.716,685.249 177.346,685.249 205.976,706.053 
		195.031,739.778 223.723,718.975 252.415,739.778 241.471,706.053 270.1,685.249 	"/>
	<path fill="#FFFFFF" d="M434.239,685.249l-10.961-33.712l-10.961,33.712h-35.37l28.63,20.804l-10.945,33.725l28.692-20.803
		l28.692,20.803l-10.945-33.725l28.63-20.804H434.239z M423.324,700.309L423.324,700.309L423.324,700.309L423.324,700.309z"/>
	<polygon fill="#FFFFFF" points="633.839,685.249 622.878,651.537 611.917,685.249 576.547,685.249 605.177,706.053 
		594.232,739.778 622.924,718.975 651.616,739.778 640.659,706.016 669.301,685.249 	"/>
	<path fill="#FFFFFF" d="M833.44,685.249l-10.961-33.712l-10.961,33.712h-35.462l28.716,20.821l-10.939,33.708l28.66-20.826
		l28.724,20.826l-11.008-33.724l28.693-20.804H833.44z M822.479,700.309L822.479,700.309L822.479,700.309L822.479,700.309z"/>
	<polygon fill="#FFFFFF" points="1033.04,685.249 1022.079,651.537 1011.118,685.249 975.656,685.249 1004.372,706.07 
		993.433,739.778 1022.093,718.952 1050.817,739.778 1039.809,706.053 1068.502,685.249 	"/>
	<path fill="#FFFFFF" d="M152.569,825.347l-10.947-33.731l28.724-20.89h-35.483l-10.94-33.712l-10.94,33.712H93.474
		c-0.689,2.176-1.79,4.255-3.261,6.171c-0.567,0.594-1.194,1.165-1.853,1.727l17.864,12.992L96.071,822.9
		c0.201,0.476,0.398,0.954,0.601,1.43l27.251-19.863L152.569,825.347z"/>
	<polygon fill="#FFFFFF" points="334.464,770.727 323.524,737.015 312.583,770.727 277.101,770.727 305.824,791.617 
		294.878,825.347 323.524,804.468 352.169,825.347 341.223,791.617 369.947,770.727 	"/>
	<polygon fill="#FFFFFF" points="534.064,770.727 523.124,737.015 512.183,770.727 476.701,770.727 505.402,791.6 494.386,825.347 
		523.11,804.457 551.77,825.347 540.823,791.617 569.547,770.727 	"/>
	<polygon fill="#FFFFFF" points="733.665,770.727 722.724,737.015 711.784,770.727 676.301,770.727 705.002,791.6 693.986,825.347 
		722.71,804.457 751.37,825.347 740.424,791.617 769.147,770.727 	"/>
	<polygon fill="#FFFFFF" points="933.265,770.727 922.325,737.015 911.384,770.727 875.902,770.727 904.551,791.562 
		893.587,825.347 922.279,804.48 950.971,825.347 940.019,791.6 968.656,770.727 	"/>
	<polygon fill="#FFFFFF" points="1132.866,770.727 1121.925,737.015 1110.985,770.727 1075.502,770.727 1104.139,791.6 
		1093.187,825.347 1121.879,804.48 1150.571,825.347 1139.619,791.6 1168.256,770.727 	"/>
	<path fill="#FFFFFF" d="M1224.903,626.484v121.86h1069.571c-2.536-7.344-10.501-12.933-16.163-17.87
		c-7.812-5.757-9.663-15.705-10.64-24.738c1.526-0.407,4.618-1.221,6.144-1.648c-3.723-17.109-7.365-35.744-0.59-52.629
		c2.604-7.588,10.131-11.576,16.804-15.014c1.282,12.918-9.379,24.128-5.208,37.066c0.427,4.333,5.737,3.113,8.829,4.008
		c0.366,10.253-1.75,20.71,0.488,30.82c3.926,3.113,6.795-2.848,10.355-2.4c4.231,9.663,9.134,19.021,15.705,27.321
		c3.673,4.263,3.415,9.738,3.006,15.083h9.02c1.41-9.08,2.039-18.255,2.5-27.432c0.305-9.378,8.911-15.644,10.457-24.575
		c-0.855-4.089-2.645-7.873-4.252-11.657c-3.58-1.058-7.527-1.912-9.439-5.452c-9.46-13.793-19.266-27.423-27.077-42.254
		c3.621-2.238,7.466-4.923,12.023-4.313c2.95,4.211,2.929,9.785,4.13,14.688c6.205,3.133,12.613,5.9,19.042,8.585
		c0.284,1.77,0.834,5.33,1.118,7.1c2.828-1.607,6.246-2.624,8.382-5.269c2.543-6.978,0.976-14.993,4.72-21.625
		c1.707-3.294,3.623-6.467,5.514-9.657H1224.903z"/>
	<path fill="#FFFFFF" d="M2442.036,163.334c-1.078,7.405-5.086,13.956-6.835,21.178c-0.957,4.496,4.658,5.798,7.323,8.158
		c-2.034,7.771-5.757,14.891-9.988,21.666c-2.523,3.397-1.587,7.629-1.383,11.535c-6.917,8.239-10.335,19.205-19.428,25.572
		c-2.633,2.443-4.168,6.205-6.136,9.461h118.322c2.367-2.607,5.834-4.226,8.615-6.367c-0.206,2.127-0.406,4.247-0.595,6.367h13.817
		c0.248-0.663,0.499-1.323,0.734-1.994c3.092-0.122,6.246,0.041,9.378-0.407c2.258-2.217,4.069-4.801,6.144-7.222h0.265
		c8.585-13.406,20.852-23.72,32.733-34.076c-4.395-4.029-8.463-8.402-12.898-12.349c-3.723-3.743-10.721-1.933-13.448-6.835
		c-2.319-3.377,0.529-7.425,0.916-10.965c-6.063-1.424-12.043-3.112-17.882-5.228c0.244-9.989-8.402-16.926-10.07-26.426
		c-1.128-5.482-2.358-10.938-3.731-16.358h-94.49C2443.247,147.16,2443.198,155.282,2442.036,163.334z"/>
	<path fill="#FFFFFF" d="M1674.736,251.055c6.428-2.828,10.07-9.684,11.169-16.397c-8.382,3.743-15.644,9.541-21.422,16.641h-1.2
		c-4.317,3.103-8.534,6.332-12.717,9.604h15.758C1669.328,257.819,1671.82,254.232,1674.736,251.055z"/>
	<path fill="#FFFFFF" d="M1533.862,260.903c3.763-3.609,7.785-6.949,12.099-9.929c15.787-8.87,29.803-20.812,46.465-28.197
		c3.784-1.403,6.103-4.781,8.422-7.913c-3.479-1.078-6.937-2.116-10.396-3.153c-0.427-1.221-1.282-3.642-1.709-4.862
		c-9.765-1.098-19.367,0.956-28.969,2.38c-2.828-2.624-5.676-5.188-8.565-7.731c-3.214,5.574-5.676,11.82-10.355,16.356
		c-3.682,3.56-9.5,2.482-13.61,0.346c-6.612-3.357-10.294-10.131-15.848-14.708c-9.562-4.984-19.388,5.778-28.583,0.041
		c-9.216-3.784-12.918-15.197-23.008-17.475c-3.988-1.607-7.466,1.302-10.945,2.726c-6.408,3.927-13.589-0.448-19.978-2.116
		c-10.945-4.292-23.517-1.241-34.014-6.957c-4.028-2.095-8.707-5.086-8.402-10.274c-1.017-9.073-0.427-20.852-10.131-25.45
		c-0.793,6.978,3.092,20.669-8.036,20.262c-42.01-0.04-84.06-0.712-126.09-0.977c-5.77-0.061-11.539-0.116-17.308-0.167v97.797
		H1533.862z"/>
	<path fill="#FFFFFF" d="M120.722,870.205c0.871,1.354,1.754,2.7,2.651,4.037c5.025,12.328-5.798,23.456-4.191,35.825
		c1.221,7.954,7.344,14.891,15.034,17.251c11.84,3.784,23.863,7.812,34.177,14.953c5.188,3.56,4.984,10.701,6.693,16.153
		c9.338,4.903,19.326,8.504,29.783,10.07c9.867,0.712,12.471,12.633,10.355,20.649c1.019,0.951,2.047,1.894,3.084,2.83h2049.376
		c-2.044-3.863-5.193-7.163-7.58-10.784c4.537-3.275,9.5-6.368,12.552-11.23c6.001-8.809,9.073-20.323,19.225-25.552
		c9.297-8.178,21.829-1.831,32.712-3.886c4.496-0.773,10.315-2.97,11.128-8.097c-0.977-4.883-3.154-9.521-6.103-13.488
		c-2.441-0.203-4.862-0.102-7.243-0.041c-1.383-5.025-2.604-10.09-3.763-15.136c-5.229-0.203-10.416-0.57-15.522-1.505
		c3.072-5.839,9.094-9.216,15.258-10.904c5.798,1.994,10.864,5.615,16.478,8.076c4.821-8.402,8.667-17.414,14.525-25.206
		c0.397-1.322,0.794-2.664,1.17-4.017H1224.903H120.722z"/>
	<path fill="#FFFFFF" d="M1954.745,502.625h0.631c1.485-6.51,5.391-13.915,1.282-20.242c-3.173-6.347-10.314-8.707-15.97-12.206
		c0.386-4.984,0.183-10.009-1.709-14.688c-2.848-7.527-3.397-15.604-5.31-23.334c-0.651-2.685-2.36-6.307-5.696-5.493
		c-5.737,0.692-11.759,1.79-16.58,5.066c-6.591,5.391-5.757,14.485-8.605,21.727c-8.137,3.906-19.184,0.468-24.595-6.469
		c-3.377-8.89,2.136-18.655,10.884-21.748c1.343-5.391,1.913-11.006,3.641-16.295c2.258-4.272,6.246-7.547,7.751-12.227
		c0.92-4.586,0.957-9.277,0.86-13.953h-116.442c-5.009,5.952-7.953,13.651-15.228,17.432c2.157,9.684,3.316,19.835,1.505,29.681
		c-1.302,4.842-7.73,9.155-4.252,14.363c4.435,7.12,2.767,16.417-3.397,21.951c2.624,2.767,5.656,5.33,7.324,8.87
		c4.15,10.212,12.369,17.923,17.658,27.505c0.001,0.686,0.007,1.373,0.01,2.059h165.648
		C1954.357,503.95,1954.55,503.278,1954.745,502.625z"/>
	<path fill="#FFFFFF" d="M2230.483,391.956c-0.244,4.17-3.763,7.242-5.879,10.619c-4.883,0.956-10.559,0.753-14.342,4.435
		c-3.438,3.682-4.984,8.626-7.833,12.694c-8.076,4.415-17.74,2.34-26.304,4.842c-4.476,0.977-8.91,3.662-13.549,2.217
		c-7.507-1.729-15.482-2.929-22.948-0.346c-13.65,4.943-27.729,8.687-40.993,14.647c3.927,9.012,13.57,14.037,16.906,23.334
		c0.102,5.066,0.285,11.23-3.988,14.81c-8.544,8.036-18.268,14.79-26.304,23.395c-0.53,0.692-1.096,1.35-1.65,2.018h315.412
		c0.817-0.315,1.632-0.637,2.44-0.981l1.281,0.244l-0.834-1.261c7.08-4.821,13.305-11.006,21.015-14.871
		c7.629-3.804,17.312,3.764,24.107-2.502c4.659-4.048,10.6-5.838,16.092-8.442c4.272-5.29,6.713-11.799,10.354-17.516
		c3.418,0.02,6.856,0.041,10.315,0.02c4.557-6.754,12.878-7.405,19.631-10.762c-9.582-14.729-21.849-27.444-32.509-41.338
		c0.346-6.225,2.198-12.43,1.119-18.676c-0.293-2.038-0.93-3.947-1.761-5.776h-249.195
		C2224.134,385.882,2227.672,388.563,2230.483,391.956z"/>
	<path fill="#FFFFFF" d="M1224.903,382.763v121.86h481.138c0.017-0.662,0.08-1.339,0.207-2.039
		c-0.59-9.46-1.017-19.367,3.906-27.891c6.51-9.846-3.356-21.157,1.2-31.451c2.665-3.459,6.225-6.083,8.992-9.439
		c1.465-6.408-4.76-12.247-2.746-18.676c3.171-10.734,7.401-21.204,8.887-32.364h-0.819c-1.796,2.058-3.486,4.186-4.833,6.569
		c-4.476,8.259-11.637,14.831-19.448,19.896c-2.889,2.095-6.53,1.098-9.765,1.078c0.285-3.621-0.427-7.832,2.359-10.68
		c4.226-5.351,9.102-10.691,12.033-16.862H1224.903z"/>
	<path fill="#FFFFFF" d="M1537.051,1358.054c1.614-0.129,3.223-0.306,4.831-0.5H1531.8
		C1533.537,1357.797,1535.286,1357.974,1537.051,1358.054z"/>
	<path fill="#FFFFFF" d="M937.545,1376.2c5.432,5.981,11.209,12.878,19.733,14.078c9.277,2.706,13.691-8.382,19.286-13.712
		c2.503-6.609,6.201-12.662,9.272-19.013h-77.251C916.884,1365.432,927.543,1370.834,937.545,1376.2z"/>
	<path fill="#FFFFFF" d="M1070.592,1364.442c2.624,4.15,5.696,8.036,8.503,12.125c7.425,8.87,20.75,13.305,23.314,25.592
		c1.505,5.717,5.696,10.05,9.236,14.607c5.737,7.181,8.503,16.092,12.552,24.229c6.654,14.233,18.26,25.199,26.519,38.419h138.731
		c2.938-1.433,5.737-3.013,7.304-6.012c5.33-9.806,10.355-20.445,19.103-27.708c3.499-0.102,7.019,0.468,10.559,0.183
		c4.13-1.322,6.184-5.473,8.667-8.687c-5.819-2.523-14.77-5.656-11.718-13.834c7.649-0.651,15.685-1.872,22.825,1.79
		c6.083-1.424,12.511-2.929,17.211-7.324c8.26-7.446,16.6-14.851,25.816-21.117c9.216-6.815,20.384-11.189,27.749-20.323
		c0.793-1.851,1.587-3.702,2.339-5.533c-3.417-0.285-6.896-0.203-10.233-0.895c-2.95-2.706-3.702-6.795-4.882-10.396
		c2.838-0.637,5.669-1.303,8.491-2.005h-345.143C1068.352,1359.937,1069.246,1362.288,1070.592,1364.442z"/>
	<path fill="#FFFFFF" d="M1429.392,1369.853c13.258-2.302,25.741-7.67,38.408-12.299h-44.386
		C1422.682,1362.415,1424.816,1367.59,1429.392,1369.853z"/>
	<path fill="#FFFFFF" d="M1600.299,1358.929c1.224-0.33,3.398-0.924,5.068-1.375h-7.595
		C1598.591,1358.046,1599.426,1358.514,1600.299,1358.929z"/>
	<path fill="#FFFFFF" d="M2079.168,1376.526c-0.733,12.755-3.662,25.226-5.229,37.88c4.618,0.895,9.256,1.729,13.895,2.604
		c-1.302-2.807-2.726-5.574-3.459-8.544c1.913-5.066,6.978-6.51,11.962-6.062c1.933,5.147,5.065,10.355,4.374,16.092
		c-2.95,6.164-13.833,8.056-11.759,16.336c4.537,7.324,12.146,12.39,15.726,20.405c2.624,4.557,3.601,10.965,9.175,13.02
		c6.173,2.762,11.79,6.576,16.69,11.159h108.254c0.132-8.734-0.208-17.506,0.007-26.193c0.936-12.064-10.111-19.265-16.499-27.871
		c-12.267-15.929-24.147-32.245-34.666-49.374l-0.59,0.041c-3.45-6.068-8.134-11.631-9.954-18.464h-98.631
		C2079.638,1363.701,2079.082,1370.417,2079.168,1376.526z"/>
	<path fill="#FFFFFF" d="M1689.526,1367.432c13.63,4.374,27.016,12.186,41.847,8.727c-0.59-1.221-1.77-3.703-2.36-4.923
		c-8.401-5.977-17.975-9.898-27.523-13.683h-26.446C1679.518,1361.388,1683.936,1365.348,1689.526,1367.432z"/>
	<path fill="#FFFFFF" d="M1619.117,1376.587c7.059,5.269,19.449,8.585,25.165-0.081c2.116-2.726,4.231-5.493,6.937-7.669
		c2.523,0.142,5.005,0.59,7.486,1.343c0.773,2.116,1.546,4.252,2.36,6.429c5.025,0.122,10.07,0.142,15.115,0.163
		c1.037-2.462,2.095-4.903,3.153-7.324c-3.886-2.868-8.158-5.188-11.799-8.341c-0.886-0.81-1.276-2.188-1.249-3.552h-59.264
		C1612.239,1363.039,1616.946,1369.198,1619.117,1376.587z"/>
	<path fill="#FFFFFF" d="M400.758,1114.622c8.259,4.943,15.929,11.311,24.921,14.79c12.552,10.843,27.627,18.024,41.806,26.406
		c30.21,16.743,60.319,33.648,91.038,49.435c8.056,5.065,17.678,1.79,26.508,3.153c27.85,3.336,55.701,6.53,83.531,10.05
		c13.122,1.444,25.328,7.71,38.673,7.466c-0.427-6.062-1.75-12.165-1.099-18.248c1.811-4.354,6.754-6.042,11.087-6.591
		c26.406-4.069,52.975,2.34,79.442-0.265c6.591,3.662,8.687,11.921,13.386,17.516c4.789,5.839,9.637,11.665,14.634,17.36h1293.44
		c-1.788-6.261-3.386-12.558-4.07-19.048c1.017-7.446,4.313-14.403,5.106-21.89c2.055-16.967,6.327-34.34,16.6-48.316
		c3.764-4.862,4.293-11.148,4.984-17.007c1.709-5.371,5.005-10.151,10.131-12.735c1.424-0.839,2.703-1.804,3.875-2.865H399.425
		C399.866,1114.1,400.298,1114.378,400.758,1114.622z"/>
	<path fill="#B22134" d="M2523.756,100.289c-3.702-4.455-6.123-9.826-9.907-14.18c-4.923-2.563-10.518-3.316-15.807-4.598
		c-4.17,4.943-7.731,11.087-14.057,13.569c-6.348,2.767-12.898,4.984-19.388,7.365c1.648-3.377,3.255-6.795,4.618-10.314
		c-4.435-0.285-8.87-0.305-13.264-0.224c0.346,4.354,3.885,9.948-0.611,13.223c-6.205,5.574-11.046,12.573-11.453,21.178
		c-0.308,4.236-0.413,8.484-0.491,12.734h94.49c-1.078-4.255-2.243-8.488-3.531-12.693
		C2530.775,117.663,2530.714,107.267,2523.756,100.289z"/>
	<path fill="#B22134" d="M1726.633,381.662c-0.327,0.364-0.645,0.733-0.965,1.101h0.819
		C1726.535,382.396,1726.59,382.031,1726.633,381.662z"/>
	<path fill="#B22134" d="M2531.569,265.195c4.191,0.02,8.443,0.224,12.674-0.448c0.524-1.276,1.021-2.557,1.504-3.845h-13.817
		C2531.802,262.332,2531.676,263.762,2531.569,265.195z"/>
	<path fill="#B22134" d="M2397.707,267.188c-10.558,1.485-20.873,4.17-31.004,7.364c-11.535,3.662-24.086,1.384-35.418,5.778
		c-9.623,3.418-20.018,4.496-29.031,9.501c-12.166,6.51-26.955,2.93-39.121,9.399c-6.652,2.523-9.643,9.46-13.691,14.749
		c-8.687,11.799-16.722,24.026-24.331,36.537c-3.398,6.734-11.86,6.53-17.943,9.277c0.204,1.709,0.59,5.127,0.793,6.835
		c5.269-0.203,10.539-0.488,15.848-0.692c-0.386,1.505-1.2,4.516-1.587,6.022h-1.038c-0.752,2.828-2.522,5.615-2.095,8.646
		c0.623,0.753,1.292,1.463,1.976,2.159h249.195c-1.706-3.756-4.242-7.173-6.376-10.662c2.258-17.74,14.831-32.428,16.031-50.432
		c0.264-4.476,4.374-7.08,7.12-10.111c4.211,0.285,9.276,2.136,12.796-1.323c5.981-5.147,10.253-11.942,15.786-17.536
		c1.445-0.02,4.333-0.041,5.757-0.061c3.214-9.48,0.061-19.652,0.875-29.356c0.445-0.889,1.013-1.669,1.659-2.38h-118.322
		C2403.754,263.937,2401.545,266.531,2397.707,267.188z"/>
	<path fill="#B22134" d="M1901.201,377.268c-3.845-1.79-7.425-4.069-10.233-7.262c-0.692-6.123,3.295-10.497,7.446-14.302
		c-7.771-1.322-11.087-10.945-19.408-9.907c-6.551,0.163-13.122,0.183-19.469-1.526c-1.343-5.045-2.909-10.009-4.74-14.891
		c-4.048,0.468-8.056,0.854-12.064,1.241c-0.773,0.671-2.278,2.034-3.051,2.706c-2.584-3.764-5.35-7.405-9.074-10.07
		c-1.424,3.092-2.502,6.327-4.251,9.236c-4.069,2.909-8.911,4.374-13.407,6.408c2.259,1.994,4.537,4.008,6.836,6.042
		c-0.244,4.455-0.509,8.931-0.814,13.386c-4.292,0.163-8.585,0.285-12.837,0.407c0.488,4.394,0.814,8.829,1.058,13.264
		c-0.59,3.255-1.18,6.53-1.75,9.785c-7.1-1.506-6.042-10.131-11.189-13.325c-2.279,4.109-3.825,8.748-7.303,12.084
		c-0.734,0.701-1.414,1.447-2.064,2.22h116.442C1901.291,380.927,1901.235,379.092,1901.201,377.268z"/>
	<path fill="#B22134" d="M1224.903,260.903v121.86h481.111c1.571-3.306,2.592-6.847,2.635-10.764h0.488
		c4.842-12.776,6.428-29.03,19.367-36.598c2.238,1.159,4.577,2.116,6.998,2.909c2.624-3.58,4.679-8.402,9.602-9.236
		c3.397,3.072,4.415,7.853,6.347,11.901c1.282-4.008,2.258-8.158,4.272-11.881c3.214-4.76,8.463-7.507,13.305-10.355
		c6.347,2.584,13.142,1.017,19.734,0.488c-0.651-0.835-1.953-2.503-2.604-3.337c2.055-4.435,5.005-8.381,8.687-11.616
		c5.371,1.628,12.023,1.648,15.787,6.489c4.028,4.944,8.279,9.724,13.345,13.691c2.706-4.577,4.232-9.663,6.307-14.525
		c0.976-3.275,5.289-1.526,7.771-1.668c13.833,1.994,27.85,1.933,41.806,2.238c-0.366-2.848-0.712-5.676-1.017-8.504
		c-7.548,0.142-15.217-0.203-22.479-2.197c-3.845-1.973-6.978-4.984-10.253-7.71c1.099-4.923,1.241-9.988,1.058-14.993
		c-3.133,3.214-6.144,6.551-9.155,9.846c-8.382,0.448-16.783,0.366-25.125-0.122c-1.77-1.77-3.519-3.54-5.228-5.289
		c0.753-1.058,2.258-3.153,3.011-4.211c-0.366-1.404-1.078-4.252-1.424-5.676c-3.275-0.651-6.53-1.424-9.825-1.648
		c-3.438,1.485-6.083,4.211-8.972,6.449c-7.832,7.405-20.059-0.305-28.521,5.818c-8.829,5.615-17.129,12.512-22.643,21.524
		c-3.641-2.991-7.243-6.042-10.843-9.053c-6.53,0.203-13.101,0.875-19.591,0.02c-7.669-4.15-10.131-14.871-19.082-17.251
		c-10.05-3.56-18.35,7.954-28.461,3.946c-1.546-2.482-2.38-5.31-3.377-7.995c-3.744-1.648-8.911-2.441-8.911-7.527
		c4.821-2.746,10.314-2.97,15.705-3.479c0.552-0.495,1.079-1.015,1.596-1.545h-15.758c-10.545,8.246-20.853,16.784-31.835,24.431
		c-4.414,3.337-10.355,2.95-15.054,5.594c-3.235,2.726-5.005,6.876-8.463,9.338c-7.792,1.465-15.746,2.157-23.639,3.011
		c-4.679,0.509-8.443-2.523-11.982-5.045c2.421-10.986,17.333-12.104,18.797-23.619c-5.268,3.601-9.805,8.137-14.932,11.962
		c-2.441-1.302-4.862-2.584-7.283-3.845c-8.158,7.283-18.899,10.192-28.99,13.691c-8.28,2.665-16.906,5.432-25.714,4.069
		c4.17-5.961,10.009-10.559,13.813-16.804c5.353-8.235,11.501-15.995,18.579-22.784H1224.903z"/>
	<path fill="#B22134" d="M2060.227,525.898c-13.488,11.128-30.943,17.007-42.335,30.719c-7.039,6.937-13.732,17.353-24.962,16.499
		c-6.103-0.61-12.41,0.509-17.475,4.089c-3.153,5.411-6.388,11.047-12.511,13.508c-7.792-5.533-16.987-8.788-24.27-15.095
		c-5.229-4.781-12.633-2.462-18.94-2.624c0.183-4.74,0.102-9.541,1.119-14.2c1.851-4.516,5.899-7.914,7.141-12.694
		c0-4.801-1.485-9.724,0.163-14.403c3.988-8.524,11.433-14.953,19.977-18.696c3.661-1.396,4.984-4.917,6.022-8.377h-165.648
		c0.057,11.709,0.381,23.463-0.926,35.109c-3.825,19.794-13.895,38.877-29.335,51.856c-10.335,0.081-21.971,2.584-31.044-3.804
		c-2.034-5.066-2.095-10.701-4.313-15.685c-2.706-4.862-6.673-9.195-7.466-14.912c-1.424-9.765,0.346-19.632,0-29.417
		c-0.851-8.683-9.612-14.377-9.382-23.147h-481.138v121.86h1134.438c0.678-1.144,1.353-2.29,2.013-3.444l1.281-0.041
		c2.787-5.025,6.347-10.05,6.327-16.031c0.57-12.023,4.903-24.717,0.163-36.354c-5.046-4.374-13.041-3.947-17.496-8.91
		c-2.177-6.652,3.52-12.511,7.283-17.353c6.184,4.801,13.915,6.429,21.543,7.385c-1.22-2.523-2.38-5.045-3.52-7.568
		c5.29-0.305,11.372,0.488,15.726-3.275c14.342-14.057,36.049-14.546,52.364-25.369c-2.705-2.299-5.411-4.557-8.036-6.876
		c-3.784-4.598-10.395-2.97-15.542-2.726c-0.488,5.065,0.346,11.433-5.412,13.712c-15.115,11.901-34.177,19.632-53.646,17.231
		c0.386-3.641,0.021-7.507,1.648-10.904c3.479-2.543,8.381-1.709,12.206-3.743c4.78-3.296,6.998-9.033,11.311-12.776
		c3.63-2.033,7.577-3.32,11.455-4.817H2083.6C2076.851,512.758,2068.386,519.244,2060.227,525.898z"/>
	<path fill="#B22134" d="M2322.884,753.788c-4.15,2.604-7.873,6.713-8.951,11.616c-1.017,4.415,2.522,7.954,4.455,11.555
		c2.136-2.889,4.293-5.798,6.348-8.768c-0.936-2.156-1.668-4.333-2.197-6.571c2.543-3.052,5.818-5.391,8.788-8.036
		c0.335-1.742,0.626-3.49,0.898-5.24h-9.02C2323.063,750.193,2322.905,752.026,2322.884,753.788z"/>
	<path fill="#B22134" d="M1224.903,748.344v121.86H120.722c0,0,0,0,0,0h1104.182h1125.617c1.932-6.962,3.244-14.277,0.519-21.209
		c-3.133-7.385-7.731-14.851-15.36-18.167c-1.322-10.07-0.63-20.262-1.912-30.312c-2.99,0.732-5.493,2.645-7.995,4.252
		c-5.391-3.642-8.3-9.562-11.616-14.912c-5.819-1.607-13.793-1.77-16.458-8.219c-0.407-4.862,0.041-9.704-0.041-14.546
		c-4.069-0.977-8.036-2.177-11.901-3.601c3.113-1.973,7.955-2.685,9.074-6.815c0.755-3.021,0.525-5.782-0.356-8.332H1224.903z"/>
	<path fill="#B22134" d="M239.982,1008.632c9.724,10.457,19.428,22.683,19.876,37.656c1.343,9.256-3.56,19.571,2.462,27.83
		c2.767,6.001,10.172,5.9,15.766,6.652c30.8,2.767,61.723,4.313,92.482,7.771c12.306,4.989,17.781,18.575,28.857,25.291h1755.329
		c8.122-7.354,10.989-19.351,19.541-26.41c12.694-8.443,25.653-16.621,37.534-26.243c-1.485-4.476-2.869-8.972-4.659-13.325
		c8.565-13.386,17.862-26.304,26.731-39.487c9.277-3.906,19.469-3.723,29.295-5.147c1.994-2.685,4.109-5.289,5.798-8.199
		c-0.345-1.063-0.794-2.073-1.31-3.05H218.308C225.075,998.085,232.238,1003.833,239.982,1008.632z"/>
	<path fill="#B22134" d="M844.046,1255.827c10.05,10.823,21.463,20.385,31.187,31.512c4.882,7.344,9.195,15.075,13.651,22.683
		c6.795,11.982,4.638,26.955,12.206,38.592c2.149,3.327,4.689,6.274,7.496,8.939h77.251c0.672-1.391,1.325-2.791,1.917-4.22
		c2.177-6.774,10.233-6.957,15.908-8.809c8.097-2.645,16.499,0.142,24.738,0.386c11.819,1.322,24.514-1.2,35.682,3.743
		c1.512,2.808,2.419,5.88,3.453,8.899h345.143c3.934-0.979,7.847-2.04,11.709-3.284c-0.482,1.051-0.804,2.159-0.974,3.284h44.386
		c4.126-1.508,8.272-2.939,12.471-4.159c8.137-1.058,16.153-3.133,24.331-4.008c8.808,3.365,17.805,6.851,27.197,8.167h10.082
		c6.743-0.815,13.448-2.073,20.232-2.796c-2.665-1.445-5.371-2.95-7.954-4.435c9.155-4.394,20.16-2.177,30.068-2.848
		c4.681,3.08,8.7,7.164,13.544,10.079h7.595c0.495-0.134,0.952-0.257,1.32-0.354c0.113,0.117,0.223,0.237,0.335,0.354h59.264
		c0.052-2.611,1.663-5.166,4.443-3.548c1.47,1.127,2.895,2.332,4.315,3.548h26.446c-2.313-0.917-4.625-1.827-6.918-2.755
		c-3.947-1.322-4.536-6.205-2.543-9.338c3.377-9.887,19.143-7.059,20.486-18.37c-4.557-1.261-9.236-1.953-13.895-2.38
		c-0.386,1.628-1.14,4.882-1.526,6.51c-2.604,0.488-5.228,0.936-7.792,1.424c-1.139-7.202-8.097-9.155-13.956-11.352
		c-3.927,3.357-7.975,8.809-13.875,7.202c-7.934-1.485-12.328-13.447-5.371-18.655c4.638-2.868,9.276-9.012,15.319-6.551
		c10.701,1.465,18.391,12.633,29.966,9.277c7.914-11.352,23.192-12.796,35.357-17.028c11.23,2.299,22.805,1.363,33.77-1.953
		c3.825-4.842,5.595-11.311,11.189-14.79c3.011,6.856,4.659,14.403,8.931,20.649c2.584,1.668,6.795,1.526,8.626-1.261
		c3.397-4.435,6.164-9.318,9.521-13.773c2.523,2.502,4.944,5.086,7.446,7.669c5.066-3.316,5.818-9.806,9.785-13.915
		c7.609-2.116,10.68,5.818,12.878,11.413c3.621,2.258,5.737-2.95,8.605-4.333c9.48-5.432,21.28-7.08,31.634-3.052
		c2.197,3.031,3.723,6.51,5.94,9.582c7.792,0.854,14.302-4.577,21.056-7.629c4.862,0.57,1.953,7.059,2.929,10.416
		c3.723,5.147,8.443,9.399,13.671,13.061c4.781,2.726,1.526,13.305,9.297,11.372c7.283,0.57,11.169-7.303,18.045-8.036
		c4.15-0.956,9.094-1.322,11.86-5.086c5.086-6.53,8.829-13.977,13.183-20.995c1.343-1.892,2.746-4.984,5.655-4.313
		c11.108,1.037,24.718,2.584,31.167,13c7.873,14.322,22.419,22.765,34.869,32.631c8.463,7.059,19.632,10.843,26.223,20.099
		c3.09,3.253,4.652,7.129,5.441,11.259h98.631c-0.004-0.017-0.01-0.033-0.014-0.049c-0.59-2.645-0.631-8.036,3.174-7.954
		c3.987,1.18,7.71,3.092,11.677,4.476c-7.1-9.785-13.488-20.405-23.111-27.952c-11.108-9.521-19.184-21.849-27.057-34.014
		c-6.897-11.494-15.156-22.602-18.065-35.927c-1.471-6.901-3.634-13.649-5.573-20.439H824.686
		C830.833,1242.698,837.212,1249.499,844.046,1255.827z"/>
	<path fill="#B22134" d="M2146.464,1502.84h0.265c6.653,16.336,28.379,14.546,38.592,27.403c-0.651,1.546-1.933,4.638-2.583,6.184
		c4.394,6.836,8.341,14.119,13.895,20.14c6.164,1.567,13.04,0.895,19.164-0.631c5.37-4.089,10.396-8.666,15.502-13.081
		c0.325-3.479,0.63-6.957,1.647-10.294c4.232-9.663-2.299-20.466,3.601-29.824c1.635-7.686,2.133-15.49,2.252-23.324h-108.254
		C2137.481,1485.902,2142.971,1493.945,2146.464,1502.84z"/>
	<path fill="#B22134" d="M1153.045,1483.35c3.927,6.917,6.652,14.444,8.727,22.114l0.753-1.16c2.502,7.812,5.554,15.563,10.07,22.5
		c6.53,10.029,9.683,21.707,14.424,32.59c6.042,8.931,17.272,10.579,26.935,13.02c5.167,0.692,4.862,7.73,9.439,9.256
		c12.41,3.906,25.755,1.689,38.307,4.964c6.428,1.627,10.233,8.097,16.723,9.663c2.421,0.692,5.92,1.404,7.303-1.444
		c2.177-5.533,0.59-11.677-0.122-17.333c-1.282-8.585-9.134-14.139-11.209-22.378c0.753-7.466,2.014-14.932,1.241-22.439
		c0.122-10.131-7.324-20.466-0.549-29.865c3.946-5.94,5.086-13.04,7.568-19.591c1.977-1.623,4.43-2.682,6.794-3.834h-138.731
		C1151.524,1480.705,1152.31,1482.011,1153.045,1483.35z"/>
</g>
</svg>
